<?xml version="1.0" encoding="UTF-8"?>
<svg id="Calque_1" data-name="Calque 1" xmlns="http://www.w3.org/2000/svg" viewBox="0 0 961.81 403.25">
  <defs>
    <style>
      .cls-1 {
        fill: #FFFFFF;
      }
    </style>
  </defs>
  <path class="cls-1" d="m146.53,174.79h-1.27v-13.26c0-7.75-1.76-13.41-5.27-16.98-3.51-3.57-9.26-5.36-17.25-5.36h-9.62v-1.09h9.62c3.87,0,7.11-.39,9.72-1.18,2.6-.79,4.69-1.84,6.26-3.18-.36-.48-1.63-2.21-3.81-5.17-2.18-2.96-5.26-6.14-9.26-9.53-4-3.39-8.87-6.45-14.62-9.17-5.75-2.72-12.32-4.09-19.7-4.09s-14.1,1.09-19.79,3.27c-5.69,2.18-10.62,5.08-14.8,8.72-4.18,3.63-7.63,7.78-10.35,12.44-2.72,4.66-4.9,9.47-6.54,14.44-1.63,4.97-2.81,9.87-3.54,14.71-.73,4.84-1.09,9.26-1.09,13.26,0,6.54.75,13.71,2.27,21.52,1.51,7.81,4.27,15.13,8.26,21.97,4,6.84,9.5,12.56,16.52,17.16,7.02,4.6,15.98,6.9,26.87,6.9,7.99,0,14.71-.7,20.16-2.09s9.8-3.45,13.07-6.17c3.27-2.72,5.63-6.05,7.08-9.99,1.45-3.93,2.18-8.38,2.18-13.35v-9.81c0-2.66-.06-4.93-.18-6.81-.12-1.87-.58-3.39-1.36-4.54-.79-1.15-2-1.96-3.63-2.45-1.63-.48-3.9-.73-6.81-.73h-15.98c-.24,0-.36-.12-.36-.36v-.36c0-.24.12-.36.36-.36h63.55c.24,0,.36.12.36.36v.36c0,.24-.12.36-.36.36h-8.53c-2.3,0-4.09.21-5.36.64-1.27.43-2.21,1.09-2.81,2-.61.91-.97,2.06-1.09,3.45-.12,1.39-.18,3.12-.18,5.17v20.16c-3.15,5.08-7.45,9.56-12.89,13.44-2.3,1.7-5.02,3.36-8.17,4.99-3.15,1.63-6.66,3.09-10.53,4.36-3.87,1.27-8.23,2.3-13.07,3.09-4.84.79-10.17,1.18-15.98,1.18-9.8,0-19.22-1.51-28.24-4.54-9.02-3.02-16.95-7.47-23.79-13.35-6.84-5.87-12.29-13.19-16.34-21.97-4.06-8.77-6.08-18.85-6.08-30.23s2.12-21.43,6.36-30.14c4.24-8.72,9.81-16.01,16.71-21.88,6.9-5.87,14.71-10.32,23.42-13.35,8.72-3.03,17.61-4.54,26.69-4.54,8.6,0,16.16,1.54,22.7,4.63,6.54,3.09,12.04,6.51,16.53,10.26,5.2,4.48,9.68,9.5,13.44,15.07,1.57-1.57,2.84-3.69,3.81-6.36.97-2.66,1.45-6.17,1.45-10.53v-13.26h1.27v13.26c0,7.87,1.82,13.56,5.45,17.07,3.63,3.51,9.32,5.27,17.07,5.27h9.63v1.09h-9.63c-7.87.12-13.59,1.91-17.16,5.36-3.57,3.45-5.36,9.11-5.36,16.98v13.26Z"/>
  <path class="cls-1" d="m228.02,238.23h-56.51v-88.61h56.51v2.77h-35.74v30.06h35.74v3.2h-35.74v49.39h35.74v3.2Z"/>
  <path class="cls-1" d="m302.11,238.52h-14.92l-34.33-62.02v62.46h-20.77v-89.34h20.77l46.05,83.43v-82.84h3.2v88.3Z"/>
  <path class="cls-1" d="m368.35,238.23h-56.51v-88.61h56.51v2.77h-35.74v30.06h35.74v3.2h-35.74v49.39h35.74v3.2Z"/>
  <path class="cls-1" d="m435.9,181.14c0,3-.49,6-1.45,9.01-.97,3-2.45,5.81-4.43,8.42-1.99,2.62-4.45,4.96-7.41,7.05-2.95,2.08-6.37,3.7-10.24,4.87l17.72,25.28c-.2.48-.53.9-1.02,1.23-.49.34-.97.65-1.45.94-2.91-4.26-5.84-8.42-8.79-12.49s-6.12-8.52-9.51-13.36c-.2-.39-.58-.58-1.16-.58-.39,0-1.09.1-2.11.29-1.02.2-1.72.29-2.1.29h-11.33v25.86h-20.77v-88.76h32.68c.39,0,1.4.17,3.05.51,1.65.34,3,.65,4.07.94,3.97,1.16,7.48,2.83,10.53,5.01,3.05,2.18,5.59,4.65,7.63,7.41,2.03,2.76,3.56,5.69,4.58,8.79,1.02,3.1,1.53,6.2,1.53,9.3Zm-3.2,0c0-2.42-.39-4.92-1.16-7.48s-1.94-5.03-3.49-7.41c-1.55-2.37-3.54-4.55-5.95-6.54-2.42-1.98-5.23-3.65-8.43-5.01-.77-.29-1.62-.58-2.54-.87-.92-.29-1.82-.53-2.69-.73-.87-.19-1.65-.36-2.32-.51s-1.11-.22-1.31-.22h-12.2v56.51h11.33c.77,0,1.72-.09,2.83-.29,1.11-.19,2.3-.48,3.56-.87,1.26-.39,2.52-.82,3.78-1.31,1.26-.48,2.37-.97,3.34-1.45,2.71-1.45,5.03-3.15,6.97-5.08s3.51-3.97,4.72-6.1c1.21-2.13,2.11-4.29,2.69-6.47.58-2.18.87-4.23.87-6.17Z"/>
  <path class="cls-1" d="m514.92,238.67h-20.63v-33.85h-33.7l-22.37,33.99c-.49-.29-.95-.6-1.38-.95-.43-.34-.9-.65-1.38-.94l58.25-86.87h21.21v88.61Zm-20.77-37.04v-46.19l-31.38,46.19h31.38Z"/>
  <path class="cls-1" d="m585.95,153.22h-20.48v85.02h-20.48v-84.87h-20.77v-3.3h61.74v3.16Z"/>
  <path class="cls-1" d="m615.59,238.38h-20.77v-87.89h20.77v87.89Z"/>
  <path class="cls-1" d="m705.36,194.51c0,5.33-.85,10.68-2.54,16.05-1.7,5.37-4.07,10.22-7.12,14.53-3.05,4.31-6.68,7.82-10.89,10.53-4.21,2.71-8.89,4.07-14.02,4.07-.2,0-.61-.02-1.24-.07-.63-.05-1.38-.1-2.25-.15-.87-.05-1.82-.1-2.83-.14-1.02-.05-1.91-.12-2.69-.22-.78,0-2.01-.12-3.7-.36-1.7-.24-3.17-.6-4.43-1.09-5.13-1.74-9.47-4.26-13-7.55-3.54-3.29-6.39-6.92-8.57-10.89-2.18-3.97-3.75-8.14-4.72-12.49-.97-4.36-1.45-8.43-1.45-12.2,0-3.39.38-7.12,1.16-11.19.77-4.07,2.11-8.06,4-11.98s4.43-7.58,7.63-10.97c3.2-3.39,7.21-6.2,12.06-8.42,1.06-.48,2.15-.9,3.27-1.24,1.11-.34,2.35-.6,3.7-.8.97-.1,2.13-.19,3.49-.29,1.35-.1,2.66-.19,3.92-.29,1.26-.1,2.35-.15,3.27-.15h1.67c7.26,0,13.63,2.32,19.1,6.97,5.47,4.65,9.95,11.48,13.44,20.48,1.07,2.71,1.79,5.74,2.18,9.08.39,3.34.58,6.27.58,8.79Zm-3.2,0c0-2.71-.15-5.28-.44-7.7-.29-2.42-.97-5.32-2.03-8.72-2.71-7.94-6.73-14.16-12.06-18.67-5.33-4.5-11.14-6.76-17.43-6.76-3.39,0-6.37.8-8.93,2.4-2.57,1.6-4.77,3.68-6.61,6.25-1.84,2.57-3.34,5.45-4.5,8.64-1.16,3.2-2.11,6.34-2.83,9.44-.73,3.1-1.24,5.98-1.53,8.64-.29,2.67-.44,4.82-.44,6.46,0,3,.24,6.17.73,9.52.48,3.34,1.26,6.68,2.32,10.02,1.06,3.34,2.45,6.54,4.14,9.59,1.69,3.05,3.75,5.79,6.17,8.21.87.77,1.94,1.45,3.2,2.03,1.26.58,2.37,1.02,3.34,1.31.77.2,1.6.41,2.47.65.87.24,1.45.36,1.74.36,5.81,0,10.77-1.43,14.89-4.28,4.12-2.86,7.48-6.39,10.1-10.61,2.61-4.21,4.55-8.74,5.81-13.58,1.26-4.84,1.89-9.25,1.89-13.22Z"/>
  <path class="cls-1" d="m784.09,238.51h-14.92l-34.33-62.32v62.77h-20.77v-89.78h20.77l46.05,83.84v-83.25h3.2v88.74Z"/>
  <path class="cls-1" d="m831.02,128.85c-9.88,17.58-17.72,36.75-17.72,63.63s7.84,45.47,17.72,63.05h-10.17c-11.33-14.67-20.63-36.75-20.63-63.05s9.3-48.96,20.63-63.63h10.17Z"/>
  <path class="cls-1" d="m912.22,215.35c0,.87-.24,2.46-.73,4.74-.49,2.28-1.4,4.35-2.76,6.19-.29.39-.63.92-1.02,1.6-.39.68-.77,1.22-1.16,1.6-2.23,2.33-4.65,4.18-7.26,5.54-2.61,1.36-5.33,2.38-8.13,3.06-2.81.68-5.67,1.09-8.57,1.24-2.9.14-5.72.22-8.42.22-1.07,0-2.03.02-2.9.07-.87.05-1.84.05-2.91,0-1.07-.05-2.3-.17-3.7-.36-1.4-.2-3.17-.54-5.3-1.02-2.81-.58-5.52-1.6-8.13-3.06-2.62-1.46-4.92-3.21-6.9-5.25-1.99-2.04-3.58-4.32-4.79-6.85-1.21-2.52-1.82-5.1-1.82-7.72,0-.29.07-1.07.22-2.33.15-1.26.41-2.48.8-3.64.77.39,1.6.73,2.47,1.02-.2.78-.39,1.6-.58,2.48-.2.88-.24,1.7-.15,2.48.39,4.08,1.6,7.46,3.63,10.13,2.03,2.67,4.45,4.79,7.26,6.34,2.81,1.55,5.81,2.65,9.01,3.28,3.2.63,6.1.95,8.72.95,3,0,5.93-.36,8.79-1.09,2.85-.73,5.4-1.92,7.63-3.57,2.23-1.65,4.04-3.76,5.45-6.34,1.4-2.57,2.11-5.76,2.11-9.54s-1.02-6.87-3.05-9.25c-2.03-2.38-5.76-4.1-11.19-5.17-.97-.19-2.25-.41-3.85-.66-1.6-.24-2.54-.36-2.83-.36l-7.26-1.17c-.2,0-.61-.05-1.23-.15-.63-.1-1.38-.24-2.25-.44-.87-.19-1.74-.41-2.62-.66-.87-.24-1.65-.46-2.32-.65-2.71-.88-5.21-2.19-7.48-3.94-2.28-1.75-4.26-3.69-5.96-5.83-1.7-2.13-3-4.39-3.92-6.78-.92-2.38-1.38-4.64-1.38-6.78,0-3.79.89-7.12,2.69-9.98,1.79-2.86,4.14-5.29,7.05-7.29,2.9-1.99,6.17-3.55,9.8-4.66,3.63-1.12,7.24-1.82,10.82-2.11.87-.1,2.23-.19,4.07-.29,1.84-.1,3.68-.15,5.52-.15,1.16,0,2.18.02,3.05.07.87.05,1.74.12,2.62.22.87.1,1.91.24,3.12.44,1.21.2,2.78.49,4.72.87.77.2,1.65.49,2.61.88.97.39,1.84.68,2.62.87.09.1.7.44,1.82,1.02,1.11.58,2.3,1.26,3.56,2.04,1.26.78,2.4,1.55,3.41,2.33,1.02.78,1.53,1.41,1.53,1.89,0,.39-.2.8-.58,1.24-.39.44-.73.8-1.02,1.09-3.39-3.4-7.29-5.83-11.69-7.29s-8.5-2.19-12.27-2.19c-3.2,0-6.22.39-9.08,1.17-2.86.78-5.4,2.02-7.63,3.72-2.23,1.7-4,3.86-5.3,6.49-1.31,2.62-1.96,5.78-1.96,9.47,0,2.43.39,5,1.16,7.72.77,2.72,2.81,5.2,6.1,7.43.48.29,1.18.58,2.11.88.92.29,1.77.54,2.54.73,3.1.88,6.29,1.48,9.59,1.82,3.29.34,7.17,1,11.62,1.97,2.9.58,5.67,1.48,8.28,2.7,2.62,1.22,4.94,2.72,6.97,4.52,2.03,1.8,3.65,3.89,4.87,6.27,1.21,2.38,1.82,4.98,1.82,7.8Z"/>
  <path class="cls-1" d="m947.66,192.47c0,26.29-9.3,48.37-20.63,63.05h-10.17c9.88-17.58,17.72-36.75,17.72-63.05s-7.84-46.05-17.72-63.63h10.17c11.33,14.67,20.63,36.46,20.63,63.63Z"/>
</svg>